<svg width="200" height="200" xmlns="http://www.w3.org/2000/svg">
  <!-- QR Code placeholder for Bitcoin address: bc1qpaekj8xfdry7ztfxzu9u7s3m9ktta604gvuu2s -->
  <rect width="200" height="200" fill="white" stroke="#000" stroke-width="2"/>
  
  <!-- QR Code pattern simulation -->
  <rect x="10" y="10" width="20" height="20" fill="black"/>
  <rect x="10" y="40" width="10" height="10" fill="black"/>
  <rect x="30" y="40" width="10" height="10" fill="black"/>
  <rect x="10" y="60" width="20" height="20" fill="black"/>
  
  <rect x="170" y="10" width="20" height="20" fill="black"/>
  <rect x="170" y="40" width="10" height="10" fill="black"/>
  <rect x="180" y="50" width="10" height="10" fill="black"/>
  <rect x="170" y="60" width="20" height="20" fill="black"/>
  
  <rect x="10" y="170" width="20" height="20" fill="black"/>
  <rect x="40" y="170" width="10" height="10" fill="black"/>
  <rect x="10" y="180" width="10" height="10" fill="black"/>
  <rect x="30" y="180" width="10" height="10" fill="black"/>
  
  <!-- Center pattern -->
  <rect x="90" y="90" width="20" height="20" fill="black"/>
  <rect x="95" y="95" width="10" height="10" fill="white"/>
  
  <!-- Random QR pattern dots -->
  <rect x="50" y="50" width="5" height="5" fill="black"/>
  <rect x="60" y="50" width="5" height="5" fill="black"/>
  <rect x="70" y="50" width="5" height="5" fill="black"/>
  <rect x="50" y="60" width="5" height="5" fill="black"/>
  <rect x="70" y="60" width="5" height="5" fill="black"/>
  <rect x="50" y="70" width="5" height="5" fill="black"/>
  <rect x="60" y="70" width="5" height="5" fill="black"/>
  
  <rect x="130" y="50" width="5" height="5" fill="black"/>
  <rect x="140" y="50" width="5" height="5" fill="black"/>
  <rect x="150" y="50" width="5" height="5" fill="black"/>
  <rect x="130" y="60" width="5" height="5" fill="black"/>
  <rect x="150" y="60" width="5" height="5" fill="black"/>
  <rect x="130" y="70" width="5" height="5" fill="black"/>
  <rect x="140" y="70" width="5" height="5" fill="black"/>
  
  <rect x="50" y="130" width="5" height="5" fill="black"/>
  <rect x="60" y="130" width="5" height="5" fill="black"/>
  <rect x="70" y="130" width="5" height="5" fill="black"/>
  <rect x="50" y="140" width="5" height="5" fill="black"/>
  <rect x="70" y="140" width="5" height="5" fill="black"/>
  <rect x="50" y="150" width="5" height="5" fill="black"/>
  <rect x="60" y="150" width="5" height="5" fill="black"/>
  
  <rect x="130" y="130" width="5" height="5" fill="black"/>
  <rect x="140" y="130" width="5" height="5" fill="black"/>
  <rect x="150" y="130" width="5" height="5" fill="black"/>
  <rect x="130" y="140" width="5" height="5" fill="black"/>
  <rect x="150" y="140" width="5" height="5" fill="black"/>
  <rect x="130" y="150" width="5" height="5" fill="black"/>
  <rect x="140" y="150" width="5" height="5" fill="black"/>
  
  <!-- Bitcoin symbol in center (very small) -->
  <text x="100" y="106" font-family="Arial" font-size="8" text-anchor="middle" fill="white">?</text>
  
  <!-- Label at bottom -->
  <text x="100" y="190" font-family="Arial" font-size="10" text-anchor="middle" fill="black">QR Code Bitcoin</text>
</svg>